<svg width="1800" height="1100" viewBox="0 0 1800 1100" fill="none" xmlns="http://www.w3.org/2000/svg">
  <rect width="1800" height="1100" fill="url(#paint0_linear_1_2)"/>
  <rect y="748" width="1800" height="352" fill="url(#paint1_linear_1_2)"/>
  <rect x="300" y="160" width="380" height="620" rx="34" fill="#DCC7AA" opacity="0.9"/>
  <rect x="726" y="100" width="450" height="680" rx="38" fill="#F2E8D8" opacity="0.92"/>
  <rect x="1210" y="220" width="254" height="560" rx="30" fill="#BCA27E" opacity="0.95"/>
  <g opacity="0.4" stroke="#7A6246" stroke-width="10">
    <path d="M356 252H624"/>
    <path d="M356 350H624"/>
    <path d="M356 448H624"/>
    <path d="M356 546H624"/>
    <path d="M356 644H624"/>
    <path d="M786 198H1120"/>
    <path d="M786 294H1120"/>
    <path d="M786 390H1120"/>
    <path d="M786 486H1120"/>
    <path d="M786 582H1120"/>
    <path d="M1260 288H1464"/>
    <path d="M1260 378H1464"/>
    <path d="M1260 468H1464"/>
    <path d="M1260 558H1464"/>
  </g>
  <circle cx="1340" cy="148" r="146" fill="#FFF0D6" opacity="0.78"/>
  <defs>
    <linearGradient id="paint0_linear_1_2" x1="0" y1="0" x2="1800" y2="1100" gradientUnits="userSpaceOnUse">
      <stop stop-color="#0D1520"/>
      <stop offset="0.45" stop-color="#31475B"/>
      <stop offset="1" stop-color="#70808F"/>
    </linearGradient>
    <linearGradient id="paint1_linear_1_2" x1="900" y1="748" x2="900" y2="1100" gradientUnits="userSpaceOnUse">
      <stop stop-color="#8E7959"/>
      <stop offset="1" stop-color="#6E563D"/>
    </linearGradient>
  </defs>
</svg>
