<svg width="1400" height="1050" viewBox="0 0 1400 1050" fill="none" xmlns="http://www.w3.org/2000/svg">
  <rect width="1400" height="1050" fill="url(#paint0_linear_1_2)"/>
  <rect y="720" width="1400" height="330" fill="url(#paint1_linear_1_2)"/>
  <rect x="188" y="240" width="250" height="500" rx="28" fill="#D7E7E0"/>
  <rect x="468" y="160" width="364" height="580" rx="34" fill="#EEF5EF"/>
  <rect x="872" y="284" width="262" height="456" rx="28" fill="#B7D2C4"/>
  <g opacity="0.42" stroke="#6B867A" stroke-width="8">
    <path d="M238 324H388"/>
    <path d="M238 410H388"/>
    <path d="M238 496H388"/>
    <path d="M238 582H388"/>
    <path d="M520 246H780"/>
    <path d="M520 334H780"/>
    <path d="M520 422H780"/>
    <path d="M520 510H780"/>
    <path d="M520 598H780"/>
    <path d="M928 338H1080"/>
    <path d="M928 420H1080"/>
    <path d="M928 502H1080"/>
    <path d="M928 584H1080"/>
  </g>
  <circle cx="1064" cy="168" r="126" fill="#E6FFF0" opacity="0.72"/>
  <defs>
    <linearGradient id="paint0_linear_1_2" x1="0" y1="0" x2="1400" y2="1050" gradientUnits="userSpaceOnUse">
      <stop stop-color="#14251B"/>
      <stop offset="0.5" stop-color="#35544A"/>
      <stop offset="1" stop-color="#6A8A79"/>
    </linearGradient>
    <linearGradient id="paint1_linear_1_2" x1="700" y1="720" x2="700" y2="1050" gradientUnits="userSpaceOnUse">
      <stop stop-color="#799283"/>
      <stop offset="1" stop-color="#5D7265"/>
    </linearGradient>
  </defs>
</svg>
