<svg width="1400" height="1050" viewBox="0 0 1400 1050" fill="none" xmlns="http://www.w3.org/2000/svg">
  <rect width="1400" height="1050" fill="url(#paint0_linear_1_2)"/>
  <rect y="720" width="1400" height="330" fill="url(#paint1_linear_1_2)"/>
  <rect x="198" y="214" width="298" height="526" rx="30" fill="#E3D1BE"/>
  <rect x="534" y="132" width="330" height="608" rx="34" fill="#F5ECDD"/>
  <rect x="904" y="258" width="274" height="482" rx="28" fill="#C7B39C"/>
  <g opacity="0.42" stroke="#7F6952" stroke-width="8">
    <path d="M250 302H444"/>
    <path d="M250 390H444"/>
    <path d="M250 478H444"/>
    <path d="M250 566H444"/>
    <path d="M584 214H794"/>
    <path d="M584 302H794"/>
    <path d="M584 390H794"/>
    <path d="M584 478H794"/>
    <path d="M584 566H794"/>
    <path d="M948 330H1114"/>
    <path d="M948 416H1114"/>
    <path d="M948 502H1114"/>
    <path d="M948 588H1114"/>
  </g>
  <circle cx="1088" cy="170" r="120" fill="#FFEED1" opacity="0.82"/>
  <defs>
    <linearGradient id="paint0_linear_1_2" x1="0" y1="0" x2="1400" y2="1050" gradientUnits="userSpaceOnUse">
      <stop stop-color="#221B17"/>
      <stop offset="0.48" stop-color="#5A4B42"/>
      <stop offset="1" stop-color="#8C7965"/>
    </linearGradient>
    <linearGradient id="paint1_linear_1_2" x1="700" y1="720" x2="700" y2="1050" gradientUnits="userSpaceOnUse">
      <stop stop-color="#A08C77"/>
      <stop offset="1" stop-color="#7F6954"/>
    </linearGradient>
  </defs>
</svg>
