<svg width="1600" height="1000" viewBox="0 0 1600 1000" fill="none" xmlns="http://www.w3.org/2000/svg">
  <rect width="1600" height="1000" fill="url(#paint0_linear_1_2)"/>
  <rect y="700" width="1600" height="300" fill="url(#paint1_linear_1_2)"/>
  <rect x="226" y="252" width="322" height="468" rx="30" fill="#DDE7EE"/>
  <rect x="570" y="174" width="434" height="546" rx="36" fill="#EEF3F7"/>
  <rect x="1026" y="292" width="260" height="428" rx="28" fill="#C8D3DA"/>
  <g opacity="0.45" stroke="#7A8B97" stroke-width="8">
    <path d="M274 332H500"/>
    <path d="M274 418H500"/>
    <path d="M274 504H500"/>
    <path d="M274 590H500"/>
    <path d="M624 258H948"/>
    <path d="M624 344H948"/>
    <path d="M624 430H948"/>
    <path d="M624 516H948"/>
    <path d="M624 602H948"/>
    <path d="M1068 348H1244"/>
    <path d="M1068 432H1244"/>
    <path d="M1068 516H1244"/>
  </g>
  <rect x="410" y="520" width="410" height="182" rx="22" fill="#A7B6C2" opacity="0.46"/>
  <circle cx="1160" cy="190" r="150" fill="#FDEAC6" opacity="0.78"/>
  <circle cx="1160" cy="190" r="86" fill="#FFDFA0" opacity="0.9"/>
  <defs>
    <linearGradient id="paint0_linear_1_2" x1="0" y1="0" x2="1600" y2="1000" gradientUnits="userSpaceOnUse">
      <stop stop-color="#16222D"/>
      <stop offset="0.5" stop-color="#40556A"/>
      <stop offset="1" stop-color="#7C8C9A"/>
    </linearGradient>
    <linearGradient id="paint1_linear_1_2" x1="800" y1="700" x2="800" y2="1000" gradientUnits="userSpaceOnUse">
      <stop stop-color="#8392A0"/>
      <stop offset="1" stop-color="#667784"/>
    </linearGradient>
  </defs>
</svg>
